<svg width="148" height="101" viewBox="0 0 148 101" fill="none" xmlns="http://www.w3.org/2000/svg">
<path fill-rule="evenodd" clip-rule="evenodd" d="M334 36C335.066 36 335.929 36.8636 335.929 37.9289C335.929 38.9943 335.066 39.8579 334 39.8579L310.627 39.8579C309.562 39.8579 308.698 38.9943 308.698 37.9289C308.698 36.8636 309.562 36 310.627 36L334 36ZM301.508 36C302.574 36 303.437 36.8636 303.437 37.9289C303.437 38.9943 302.574 39.8579 301.508 39.8579H270.532C269.467 39.8579 268.603 38.9943 268.603 37.9289C268.603 36.8636 269.467 36 270.532 36H301.508ZM262.207 36C263.273 36 264.136 36.8636 264.136 37.9289C264.136 38.9943 263.273 39.8579 262.207 39.8579L98.9034 39.8579C89.5865 39.8579 81.127 45.2965 77.2595 53.7727L76.4006 55.6552C71.9059 65.506 62.0747 71.8265 51.2469 71.8265H19.6888C18.477 75.9606 14.6167 78.983 10.0419 78.983C4.49593 78.983 0 74.5411 0 69.0617C0 63.5823 4.49593 59.1404 10.0419 59.1404C15.214 59.1404 19.4729 63.0036 20.0236 67.9687H51.2469C60.5638 67.9687 69.0233 62.5301 72.8908 54.0538L73.7497 52.1713C78.2444 42.3205 88.0756 36 98.9034 36L262.207 36ZM3.8579 69.0617C3.8579 72.3666 6.5825 75.1251 10.0419 75.1251C13.5014 75.1251 16.226 72.3666 16.226 69.0617C16.226 65.7568 13.5014 62.9983 10.0419 62.9983C6.5825 62.9983 3.8579 65.7568 3.8579 69.0617Z" fill="white"/>
<path fill-rule="evenodd" clip-rule="evenodd" d="M426 100.982C427.066 100.982 427.929 100.119 427.929 99.0535C427.929 97.9881 427.066 97.1245 426 97.1245H402.627C401.562 97.1245 400.698 97.9881 400.698 99.0535C400.698 100.119 401.562 100.982 402.627 100.982H426ZM393.508 100.982C394.574 100.982 395.437 100.119 395.437 99.0535C395.437 97.9881 394.574 97.1245 393.508 97.1245H362.532C361.467 97.1245 360.603 97.9881 360.603 99.0535C360.603 100.119 361.467 100.982 362.532 100.982H393.508ZM354.207 100.982C355.273 100.982 356.136 100.119 356.136 99.0535C356.136 97.9881 355.273 97.1245 354.207 97.1245L190.903 97.1245C181.586 97.1245 173.127 91.686 169.26 83.2097L168.401 81.3272C163.906 71.4764 154.075 65.1559 143.247 65.1559H111.689C110.477 61.0219 106.617 57.9994 102.042 57.9994C96.4959 57.9994 92 62.4414 92 67.9207C92 73.4001 96.4959 77.8421 102.042 77.8421C107.214 77.8421 111.473 73.9789 112.024 69.0138H143.247C152.564 69.0138 161.023 74.4523 164.891 82.9286L165.75 84.8111C170.244 94.6619 180.076 100.982 190.903 100.982L354.207 100.982ZM95.8579 67.9207C95.8579 64.6158 98.5825 61.8573 102.042 61.8573C105.501 61.8573 108.226 64.6158 108.226 67.9207C108.226 71.2257 105.501 73.9842 102.042 73.9842C98.5825 73.9842 95.8579 71.2257 95.8579 67.9207Z" fill="white"/>
<path fill-rule="evenodd" clip-rule="evenodd" d="M95.8579 9.92049C95.8579 6.61558 98.5825 3.85708 102.042 3.85708C105.501 3.85708 108.226 6.61558 108.226 9.92049C108.226 13.2254 105.501 15.9839 102.042 15.9839C98.5825 15.9839 95.8579 13.2254 95.8579 9.92049ZM92 9.92049C92 4.4411 96.4959 -0.000816345 102.042 -0.000816345C106.617 -0.000816345 110.477 3.02161 111.689 7.15563L160.5 7.15563C161.566 7.15563 162.429 8.01925 162.429 9.08458C162.429 10.1499 161.566 11.0135 160.5 11.0135L112.024 11.0135C111.473 15.9786 107.214 19.8418 102.042 19.8418C96.4959 19.8418 92 15.3999 92 9.92049ZM203.5 11.0135C204.566 11.0135 205.429 10.1499 205.429 9.08458C205.429 8.01925 204.566 7.15563 203.5 7.15563L173.5 7.15563C172.435 7.15563 171.571 8.01925 171.571 9.08458C171.571 10.1499 172.435 11.0135 173.5 11.0135L203.5 11.0135Z" fill="white"/>
</svg>
