<svg width="96" height="40" viewBox="0 0 96 40" fill="none" xmlns="http://www.w3.org/2000/svg">
<g clip-path="url(#clip0_3668_44668)">
<rect x="66" width="10" height="10" fill="#FDC433"/>
<rect x="76" y="10" width="10" height="10" fill="#FDC433"/>
<rect x="86" width="10" height="10" fill="#FDC433"/>
<rect x="86" y="20" width="10" height="10" fill="#FDC433"/>
<path fill-rule="evenodd" clip-rule="evenodd" d="M-3.05176e-05 39.5156C-0.552315 39.5156 -1.00003 39.0679 -1.00003 38.5156C-1.00003 37.9633 -0.552315 37.5156 -3.05176e-05 37.5156H8.26824C8.82053 37.5156 9.26824 37.9633 9.26824 38.5156C9.26824 39.0679 8.82053 39.5156 8.26824 39.5156H-3.05176e-05ZM13.7155 39.5156C13.1632 39.5156 12.7155 39.0679 12.7155 38.5156C12.7155 37.9633 13.1632 37.5156 13.7155 37.5156H26.4871C32.23 37.5156 37.1821 33.4797 38.341 27.855C39.6914 21.3007 45.4619 16.5979 52.1538 16.5979L68.166 16.5979C68.6062 13.435 71.3526 10.9988 74.675 10.9988C78.3038 10.9988 81.2456 13.9053 81.2456 17.4906C81.2456 21.0758 78.3038 23.9823 74.675 23.9823C71.4282 23.9823 68.7314 21.6556 68.1995 18.5977C68.1932 18.5979 68.1869 18.5979 68.1806 18.5979L52.1538 18.5979C46.4109 18.5979 41.4587 22.6338 40.2999 28.2586C38.9495 34.8128 33.179 39.5156 26.4871 39.5156H13.7155ZM79.2456 17.4906C79.2456 15.0326 77.2221 12.9988 74.675 12.9988C72.1278 12.9988 70.1043 15.0326 70.1043 17.4906C70.1043 19.9485 72.1278 21.9823 74.675 21.9823C77.2221 21.9823 79.2456 19.9485 79.2456 17.4906Z" fill="white"/>
</g>
<defs>
<clipPath id="clip0_3668_44668">
<rect width="96" height="40" fill="white"/>
</clipPath>
</defs>
</svg>
