<svg width="100" height="56" viewBox="0 0 100 56" fill="none" xmlns="http://www.w3.org/2000/svg">
<g clip-path="url(#clip0_3668_44657)">
<path fill-rule="evenodd" clip-rule="evenodd" d="M101.186 20.3965C101.739 20.3965 102.186 20.8442 102.186 21.3965C102.186 21.9488 101.739 22.3965 101.186 22.3965L47.9741 22.3965C43.4801 22.3965 39.3996 25.0198 37.5341 29.1084L37.1175 30.0215C34.9268 34.8227 30.1352 37.9032 24.8579 37.9032H9.53088C8.92227 39.8754 7.0662 41.3102 4.87094 41.3102C2.1808 41.3102 0 39.1556 0 36.4977C0 33.8399 2.1808 31.6853 4.87094 31.6853C7.35734 31.6853 9.40863 33.5259 9.70509 35.9032H24.8579C29.3519 35.9032 33.4324 33.2799 35.2979 29.1913L35.7146 28.2782C37.9052 23.477 42.6968 20.3965 47.9741 20.3965L101.186 20.3965ZM2 36.4977C2 38.0283 3.26251 39.3102 4.87094 39.3102C6.47938 39.3102 7.74189 38.0283 7.74189 36.4977C7.74189 34.9672 6.47938 33.6853 4.87094 33.6853C3.26251 33.6853 2 34.9672 2 36.4977Z" fill="white"/>
<path fill-rule="evenodd" clip-rule="evenodd" d="M100.812 55.0469C101.364 55.0469 101.812 54.5992 101.812 54.0469C101.812 53.4946 101.364 53.0469 100.812 53.0469H92.5996C88.1055 53.0469 84.0251 50.4235 82.1596 46.335L81.7429 45.4218C79.5523 40.6207 74.7607 37.5401 69.4834 37.5401H54.1564C53.5478 35.568 51.6917 34.1332 49.4964 34.1332C46.8063 34.1332 44.6255 36.2878 44.6255 38.9456C44.6255 41.6034 46.8063 43.758 49.4964 43.758C51.9828 43.758 54.0341 41.9175 54.3306 39.5401H69.4834C73.9774 39.5401 78.0579 42.1635 79.9234 46.252L80.34 47.1652C82.5307 51.9663 87.3223 55.0469 92.5996 55.0469H100.812ZM46.6255 38.9456C46.6255 37.4151 47.888 36.1332 49.4964 36.1332C51.1049 36.1332 52.3674 37.4151 52.3674 38.9456C52.3674 40.4762 51.1049 41.758 49.4964 41.758C47.888 41.758 46.6255 40.4762 46.6255 38.9456Z" fill="white"/>
<path fill-rule="evenodd" clip-rule="evenodd" d="M46.6255 5.81257C46.6255 4.28202 47.888 3.00013 49.4964 3.00013C51.1049 3.00013 52.3674 4.28202 52.3674 5.81257C52.3674 7.34311 51.1049 8.625 49.4964 8.625C47.888 8.625 46.6255 7.34311 46.6255 5.81257ZM44.6255 5.81257C44.6255 3.15473 46.8063 1.00013 49.4964 1.00013C51.6917 1.00013 53.5477 2.43488 54.1564 4.40705L77.8524 4.40705C78.4047 4.40705 78.8524 4.85476 78.8524 5.40705C78.8524 5.95933 78.4047 6.40705 77.8524 6.40705L54.3306 6.40705C54.0341 8.78439 51.9828 10.625 49.4964 10.625C46.8063 10.625 44.6255 8.4704 44.6255 5.81257ZM98.71 6.40705C99.2623 6.40705 99.71 5.95933 99.71 5.40705C99.71 4.85476 99.2623 4.40705 98.71 4.40705L84.1582 4.40705C83.6059 4.40705 83.1582 4.85476 83.1582 5.40705C83.1582 5.95933 83.6059 6.40705 84.1582 6.40705L98.71 6.40705Z" fill="white"/>
</g>
<defs>
<clipPath id="clip0_3668_44657">
<rect width="100" height="56" fill="white"/>
</clipPath>
</defs>
</svg>
