<svg width="231" height="122" viewBox="0 0 231 122" fill="none" xmlns="http://www.w3.org/2000/svg">
<g clip-path="url(#clip0_3668_43794)">
<g clip-path="url(#clip1_3668_43794)">
<rect x="170.941" y="11" width="17.6864" height="17.6864" fill="#EC5C0C"/>
<rect x="188.629" y="28.6875" width="17.6864" height="17.6864" fill="#EC5C0C"/>
<rect x="206.312" y="11" width="17.6864" height="17.6864" fill="#EC5C0C"/>
<rect x="206.312" y="46.373" width="17.6864" height="17.6864" fill="#EC5C0C"/>
</g>
<path fill-rule="evenodd" clip-rule="evenodd" d="M-125.716 121.016C-126.977 121.016 -127.998 119.994 -127.998 118.734C-127.998 117.474 -126.977 116.452 -125.716 116.452L14.0766 116.452C15.3368 116.452 16.3584 117.474 16.3584 118.734C16.3584 119.994 15.3368 121.016 14.0766 121.016L-125.716 121.016ZM26.7407 121.016C25.4805 121.016 24.4589 119.994 24.4589 118.734C24.4589 117.474 25.4805 116.452 26.7407 116.452H56.4325C69.8042 116.452 81.3348 107.055 84.0331 93.9583C87.1683 78.7407 100.566 67.8218 116.103 67.8218H153.327C154.331 60.4473 160.726 54.7611 168.465 54.7611C176.902 54.7611 183.741 61.5181 183.741 69.8532C183.741 78.1884 176.902 84.9454 168.465 84.9454C160.902 84.9454 154.623 79.5148 153.404 72.385C153.39 72.3852 153.377 72.3853 153.363 72.3853H116.103C102.732 72.3853 91.201 81.7825 88.5028 94.8791C85.3675 110.097 71.9696 121.016 56.4325 121.016H26.7407ZM179.177 69.8532C179.177 64.0903 174.434 59.3246 168.465 59.3246C162.497 59.3246 157.753 64.0903 157.753 69.8532C157.753 75.6162 162.497 80.3818 168.465 80.3818C174.434 80.3818 179.177 75.6162 179.177 69.8532Z" fill="#3A49CF"/>
</g>
<defs>
<clipPath id="clip0_3668_43794">
<rect width="231" height="122" fill="white"/>
</clipPath>
<clipPath id="clip1_3668_43794">
<rect width="53.0593" height="53.0593" fill="white" transform="translate(170.941 11)"/>
</clipPath>
</defs>
</svg>
