<svg width="231" height="122" viewBox="0 0 231 122" fill="none" xmlns="http://www.w3.org/2000/svg">
<g clip-path="url(#clip0_3668_43784)">
<g clip-path="url(#clip1_3668_43784)">
<rect width="17.6864" height="17.6864" transform="matrix(-1 0 0 1 60.0591 11)" fill="#EC5C0C"/>
<rect width="17.6864" height="17.6864" transform="matrix(-1 0 0 1 42.3706 28.6875)" fill="#EC5C0C"/>
<rect width="17.6864" height="17.6864" transform="matrix(-1 0 0 1 24.688 11)" fill="#EC5C0C"/>
<rect width="17.6864" height="17.6864" transform="matrix(-1 0 0 1 24.688 46.373)" fill="#EC5C0C"/>
</g>
<path fill-rule="evenodd" clip-rule="evenodd" d="M356.717 121.016C357.977 121.016 358.998 119.994 358.998 118.734C358.998 117.474 357.977 116.452 356.717 116.452L216.924 116.452C215.663 116.452 214.642 117.474 214.642 118.734C214.642 119.994 215.663 121.016 216.924 121.016L356.717 121.016ZM204.26 121.016C205.52 121.016 206.541 119.994 206.541 118.734C206.541 117.474 205.52 116.452 204.26 116.452H174.568C161.196 116.452 149.665 107.055 146.967 93.9583C143.832 78.7407 130.434 67.8218 114.897 67.8218H77.6734C76.6692 60.4473 70.2742 54.7611 62.5349 54.7611C54.0984 54.7611 47.2593 61.5181 47.2593 69.8532C47.2593 78.1884 54.0984 84.9454 62.5349 84.9454C70.0982 84.9454 76.3777 79.5148 77.5966 72.385C77.61 72.3852 77.6235 72.3853 77.6371 72.3853H114.897C128.269 72.3853 139.799 81.7825 142.497 94.8791C145.633 110.097 159.031 121.016 174.568 121.016H204.26ZM51.8228 69.8532C51.8228 64.0903 56.5667 59.3246 62.5349 59.3246C68.5032 59.3246 73.247 64.0903 73.247 69.8532C73.247 75.6162 68.5032 80.3818 62.5349 80.3818C56.5667 80.3818 51.8228 75.6162 51.8228 69.8532Z" fill="#3A49CF"/>
</g>
<defs>
<clipPath id="clip0_3668_43784">
<rect width="231" height="122" fill="white" transform="matrix(-1 0 0 1 231 0)"/>
</clipPath>
<clipPath id="clip1_3668_43784">
<rect width="53.0593" height="53.0593" fill="white" transform="matrix(-1 0 0 1 60.0586 11)"/>
</clipPath>
</defs>
</svg>
