<svg width="158" height="48" viewBox="0 0 158 48" fill="none" xmlns="http://www.w3.org/2000/svg">
<path fill-rule="evenodd" clip-rule="evenodd" d="M97.5708 14.9205C97.5708 11.6957 100.23 8.99918 103.613 8.99918C106.995 8.99918 109.655 11.6957 109.655 14.9205C109.655 18.1453 106.995 20.8418 103.613 20.8418C100.23 20.8418 97.5708 18.1453 97.5708 14.9205ZM93.5708 14.9205C93.5708 9.4411 98.0667 4.99918 103.613 4.99918C108.161 4.99918 112.004 7.98703 113.238 12.0846L162.071 12.0846C163.176 12.0846 164.071 12.98 164.071 14.0846C164.071 15.1891 163.176 16.0846 162.071 16.0846L113.586 16.0846C113.003 21.0154 108.76 24.8418 103.613 24.8418C98.0667 24.8418 93.5708 20.3999 93.5708 14.9205ZM205.071 16.0846C206.176 16.0846 207.071 15.1891 207.071 14.0846C207.071 12.98 206.176 12.0846 205.071 12.0846L175.071 12.0846C173.967 12.0846 173.071 12.98 173.071 14.0846C173.071 15.1891 173.967 16.0846 175.071 16.0846L205.071 16.0846Z" fill="#3A49CF"/>
<path fill-rule="evenodd" clip-rule="evenodd" d="M171.071 44.5C172.176 44.5 173.071 43.6046 173.071 42.5C173.071 41.3954 172.176 40.5 171.071 40.5L88.701 40.5C84.1335 40.5 79.7978 38.4885 76.8483 35.0012C73.1387 30.6152 67.6858 28.0854 61.9415 28.0854H38.3087C37.0738 23.9879 33.2316 21.0001 28.683 21.0001C23.137 21.0001 18.6411 25.442 18.6411 30.9214C18.6411 36.4008 23.137 40.8427 28.683 40.8427C33.8305 40.8427 38.0733 37.0163 38.6566 32.0854H61.9415C66.5089 32.0854 70.8446 34.0969 73.7942 37.5843C77.5038 41.9703 82.9566 44.5 88.701 44.5L171.071 44.5ZM22.6411 30.9214C22.6411 27.6966 25.3005 25.0001 28.683 25.0001C32.0656 25.0001 34.725 27.6966 34.725 30.9214C34.725 34.1462 32.0656 36.8427 28.683 36.8427C25.3005 36.8427 22.6411 34.1462 22.6411 30.9214Z" fill="#3A49CF"/>
</svg>
